#!OML:ASF E:\emotionWalksFemale\Project 1\Capture day 1\Session 1\Female1.ASF
:FULLY-SPECIFIED
:DEGREES
3076
root 9.23058 15.2705 40.5506 179.707 3.58654 177.976
lowerback 6.02177 1.27975 0.0635926
upperback -6.37786 2.028 0.291663
thorax -10.1786 1.1015 -0.0427828
lowerneck 0.0740053 -0.0696028 -6.70494
upperneck 4.52217 -0.29847 5.19232
head 1.44633 -0.218222 2.84087
rclavicle -1.77912e-014 -8.34896e-015
rhumerus -39.7296 5.45045 -86.3957
rradius 32.8229
rwrist 14.7537
rhand -5.46924 -48.8653
rfingers 7.12502
rthumb 20.3425 -77.8199
lclavicle -1.77912e-014 -8.34896e-015
lhumerus -49.6504 6.32902 79.6782
lradius 34.1291
lwrist -19.3569
lhand -4.25177 -32.7125
lfingers 7.12502
lthumb 21.5122 -3.88713
rfemur -5.79354 -10.3622 29.8126
rtibia 31.3234
rfoot -37.3633 -42.3212
rtoes 23.1375
lfemur -9.58874 -20.3803 -21.8082
ltibia 27.1353
lfoot -25.7784 23.6594
ltoes -5.3417
3077
root 9.20716 15.2722 40.5424 179.643 3.18811 178.239
lowerback 6.11907 1.33196 0.346923
upperback -6.44313 2.1384 0.299592
thorax -10.3004 1.13635 -0.213977
lowerneck 0.370953 -0.31115 -6.91991
upperneck 4.45291 -0.647582 5.34529
head 1.3975 -0.398995 2.92834
rclavicle -3.18055e-014 -1.19271e-014
rhumerus -40.1549 4.9553 -86.1623
rradius 32.7702
rwrist 16.3621
rhand -2.09805 -50.8395
rfingers 7.12502
rthumb 23.5793 -79.4139
lclavicle -3.18055e-014 -1.19271e-014
lhumerus -49.7524 5.80762 80.1969
lradius 34.3361
lwrist -19.0725
lhand -4.6634 -32.6704
lfingers 7.12502
lthumb 21.1168 -3.80038
rfemur -5.65882 -10.3922 29.985
rtibia 31.2938
rfoot -36.6742 -42.7216
rtoes 22.4518
lfemur -9.62624 -20.5483 -21.631
ltibia 27.2913
lfoot -25.9449 23.454
ltoes -5.82171
3078
root 9.18129 15.2732 40.5334 179.727 2.66599 178.52
lowerback 6.05569 1.28139 0.60662
upperback -6.53322 2.12043 0.380508
thorax -10.3572 1.11728 -0.270999
lowerneck 0.533442 -0.450587 -7.28151
upperneck 4.45002 -0.852656 5.53058
head 1.38725 -0.508337 3.05825
rclavicle -1.04362e-014 -7.95139e-015
rhumerus -40.4486 4.63264 -85.9231
rradius 32.8036
rwrist 18.123
rhand 0.862495 -52.9115
rfingers 7.12502
rthumb 26.4162 -81.0909
lclavicle -1.04362e-014 -7.95139e-015
lhumerus -49.8463 5.66727 80.5797
lradius 34.6188
lwrist -18.7358
lhand -4.47203 -32.5765
lfingers 7.12502
lthumb 21.3006 -3.7271
rfemur -5.71698 -10.519 30.1757
rtibia 31.3293
rfoot -35.7128 -43.129
rtoes 21.5862
lfemur -9.81601 -20.6878 -21.3868
ltibia 27.3635
lfoot -25.383 23.4407
ltoes -5.99156
3079
root 9.15732 15.274 40.5201 179.811 2.23161 178.793
lowerback 5.88014 1.29398 0.81514
upperback -6.56535 2.17204 0.42281
thorax -10.2818 1.13343 -0.345909
lowerneck 0.4309 -0.650497 -7.49624
upperneck 4.60495 -1.12874 5.74147
head 1.48065 -0.648608 3.17037
rclavicle 8.39865e-015 1.74931e-014
rhumerus -40.807 4.77534 -86.1973
rradius 32.4573
rwrist 16.6805
rhand -3.13785 -50.4486
rfingers 7.12502
rthumb 22.5817 -79.1478
lclavicle 8.39865e-015 1.74931e-014
lhumerus -49.7529 5.51273 80.9023
lradius 34.7657
lwrist -18.5575
lhand -4.15302 -32.2248
lfingers 7.12502
lthumb 21.607 -3.41023
rfemur -5.78659 -10.6958 30.3198
rtibia 31.4404
rfoot -35.8357 -42.9778
rtoes 22.2004
lfemur -9.88165 -21.3535 -21.2164
ltibia 27.3491
lfoot -25.4158 23.8822
ltoes -7.13403
3080
root 9.13359 15.2828 40.5087 179.879 1.9445 178.82
lowerback 5.74478 1.34564 0.790069
upperback -6.59685 2.24464 0.414346
thorax -10.2356 1.1738 -0.348266
lowerneck 0.276834 -0.921148 -7.60462
upperneck 4.81781 -1.49084 5.75355
head 1.60615 -0.832516 3.19221
rclavicle 9.39258e-015 -1.59028e-015
rhumerus -41.1108 4.82199 -86.2831
rradius 32.5938
rwrist 17.2701
rhand -0.786201 -52.926
rfingers 7.12502
rthumb 24.8371 -81.3328
lclavicle 9.39258e-015 -1.59028e-015
lhumerus -49.6861 5.3321 81.261
lradius 34.8547
lwrist -18.5759
lhand -3.9353 -31.9482
lfingers 7.12502
lthumb 21.8161 -3.15791
rfemur -5.84476 -10.6962 30.2092
rtibia 31.5721
rfoot -36.3618 -42.6997
rtoes 22.8702
lfemur -9.95087 -21.515 -21.2874
ltibia 27.328
lfoot -25.3314 23.9257
ltoes -8.49226
3081
root 9.10697 15.2896 40.4999 179.893 1.66824 178.785
lowerback 5.70977 1.4028 0.757832
upperback -6.61947 2.31726 0.360009
thorax -10.238 1.21051 -0.398226
lowerneck 0.277333 -1.15828 -7.71036
upperneck 4.82815 -1.81308 5.84547
head 1.6369 -0.994259 3.23981
rclavicle -1.2921e-014 4.37326e-015
rhumerus -41.3504 4.59515 -86.161
rradius 32.3866
rwrist 18.0144
rhand 0.465267 -52.8914
rfingers 7.12502
rthumb 26.0359 -81.1273
lclavicle -1.2921e-014 4.37326e-015
lhumerus -49.5785 5.13884 81.5232
lradius 35.0746
lwrist -18.1974
lhand -2.98706 -31.9638
lfingers 7.12502
lthumb 22.7264 -3.28225
rfemur -5.8639 -10.6306 30.046
rtibia 31.6955
rfoot -36.1458 -42.8239
rtoes 22.1556
lfemur -10.0213 -21.1157 -21.4075
ltibia 27.316
lfoot -25.0324 23.4461
ltoes -9.211
3082
root 9.07796 15.2897 40.4902 179.784 1.19145 179.026
lowerback 5.77154 1.3981 1.00374
upperback -6.59174 2.33667 0.375567
thorax -10.2356 1.20125 -0.523234
lowerneck 0.36246 -1.34041 -7.87419
upperneck 4.71179 -2.06731 6.07584
head 1.61011 -1.12045 3.34731
rclavicle 1.04362e-015 -5.56597e-015
rhumerus -41.6009 4.51567 -86.1542
rradius 32.1377
rwrist 18.2151
rhand 0.557403 -52.4359
rfingers 7.12502
rthumb 26.1242 -80.6588
lclavicle 1.04362e-015 -5.56597e-015
lhumerus -49.4081 4.66001 82.0176
lradius 35.1161
lwrist -18.3207
lhand -4.16946 -32.101
lfingers 7.12502
lthumb 21.5912 -3.28471
rfemur -5.75548 -10.8663 30.1468
rtibia 31.8208
rfoot -35.6391 -42.9808
rtoes 21.8909
lfemur -9.92733 -21.293 -21.3154
ltibia 27.2957
lfoot -24.8263 23.4121
ltoes -9.94308
